PathFileType	4	(X/Y/Z)	Run_300 02
DataRate	CameraRate	NumFrames	NumMarkers	Units	OrigDataRate	OrigDataStartFrame	OrigNumFrames
100	100	4	42	mm	100	3	128
Frame#	Time	LASI			RASI			LPSI			RTH1			RTH2			RTH3			LTH1			LTH2			LTH3			RTB1			RTB2			RTB3			LTB1			LTB2			LTB3			RCAL			RTOE			RMT5			LCAL			LTOE			LMT5			LACR			RACR			CLAV			C7			RUA1			RUA2			RUA3			RLEL			RMEL			LUA1			LUA2			LUA3			LLEL			RFAsuperior			RFAradius			RFAulna			LFAsuperior			LFAradius			LFAulna			LMEL			RPSI			
		X1	Y1	Z1	X2	Y2	Z2	X3	Y3	Z3	X4	Y4	Z4	X5	Y5	Z5	X6	Y6	Z6	X7	Y7	Z7	X8	Y8	Z8	X9	Y9	Z9	X10	Y10	Z10	X11	Y11	Z11	X12	Y12	Z12	X13	Y13	Z13	X14	Y14	Z14	X15	Y15	Z15	X16	Y16	Z16	X17	Y17	Z17	X18	Y18	Z18	X19	Y19	Z19	X20	Y20	Z20	X21	Y21	Z21	X22	Y22	Z22	X23	Y23	Z23	X24	Y24	Z24	X25	Y25	Z25	X26	Y26	Z26	X27	Y27	Z27	X28	Y28	Z28	X29	Y29	Z29	X30	Y30	Z30	X31	Y31	Z31	X32	Y32	Z32	X33	Y33	Z33	X34	Y34	Z34	X35	Y35	Z35	X36	Y36	Z36	X37	Y37	Z37	X38	Y38	Z38	X39	Y39	Z39	X40	Y40	Z40	X41	Y41	Z41	X42	Y42	Z42	

1	0.61	1279.598518	1034.706226	-448.60345	1266.497242	1036.728913	-188.929167	1115.814462	1088.922939	-375.421718	1251.513966	865.996999	-134.030385	1312.296228	777.522184	-153.859443	1282.768012	637.835278	-175.041329	1187.86283	875.355456	-495.701932	1198.641053	734.534114	-449.289296	1084.853135	650.007547	-450.836287	1417.27493	407.582289	-255.415573	1397.198423	292.205959	-225.362737	1444.848561	237.278343	-291.100997	922.7192250000001	410.809815	-368.757512	856.112634	399.426989	-415.990426	800.197546	342.785983	-358.049918	1369.68376	92.13209500000001	-312.806822	1586.057095	188.526177	-302.265737	1580.284924	146.415706	-232.974139	644.320247	374.438412	-360.998554	713.3159020000001	153.875187	-286.860424	684.258497	148.810667	-373.70923	1313.797962	1574.873867	-443.967654	1247.537018	1536.95904	-120.401517	1320.083975	1490.614042	-248.309149	1215.507583	1582.619752	-298.081625	1141.51301	1445.016947	-57.15471	1079.442752	1461.057574	-86.163313	1058.856961	1397.662862	-56.277745	996.142325	1336.258247	-53.670285	985.309259	1343.086979	-148.655209	1295.624016	1469.042338	-548.027497	1215.230442	1421.695826	-560.130356	1262.824655	1353.932784	-587.02584	1252.484396	1281.00474	-604.678188	1081.604574	1316.170673	-53.379694	1243.550939	1282.215001	-104.454823	1212.755381	1219.711925	-88.836842	1322.722515	1281.272372	-549.490463	1405.422021	1336.90439	-401.355215	1427.364256	1268.632873	-408.288947	1184.123402	1266.758835	-540.8136909999999	1102.308016	1087.566672	-281.203768	
2	0.62	1279.837921	1029.780168	-449.380639	1267.164525	1032.686123	-189.660397	1115.496949	1084.203619	-375.419371	1251.915054	859.468045	-134.668677	1311.857358	769.663491	-152.520109	1283.443843	632.026663	-176.087885	1191.023601	871.0517180000001	-496.427981	1204.270753	730.5706730000001	-451.536637	1093.133997	643.296284	-452.700143	1415.250249	401.618132	-258.504846	1394.642289	286.501115	-227.400535	1440.750999	230.842617	-293.603913	927.179232	409.162858	-372.461413	859.993664	402.705374	-419.655141	800.565995	349.071594	-362.015232	1363.473329	88.041183	-314.035751	1580.967542	180.336647	-305.831235	1574.865971	138.803648	-236.054818	646.304024	389.992832	-365.851947	703.965644	166.500912	-291.147328	674.009489	162.664613	-377.928438	1312.463302	1570.504961	-444.602603	1250.163575	1531.449496	-119.628578	1320.713247	1485.670183	-248.747834	1215.616004	1578.158321	-296.875293	1145.485494	1438.389462	-55.011233	1082.890154	1453.626442	-83.326134	1063.206699	1390.331873	-52.912038	1001.302707	1327.867219	-49.735768	989.308858	1334.463488	-144.529254	1290.310192	1465.732903	-547.6232189999999	1209.807186	1419.07191	-559.542651	1256.229185	1351.427291	-588.660746	1244.8572	1278.741978	-606.65977	1087.11872	1309.116137	-50.613141	1248.763566	1277.356197	-104.082727	1219.374396	1214.4026	-87.61303599999999	1316.150339	1275.982636	-552.857141	1403.241685	1327.054344	-404.899982	1422.33621	1258.192523	-413.465295	1177.463734	1264.866937	-541.7134569999999	1102.5125	1082.078565	-280.518072	
3	0.63	1280.208452	1024.136403	-449.907975	1267.958557	1027.922806	-190.146109	1115.374184	1078.328919	-375.630191	1252.354234	853.031379	-135.104733	1313.412923	763.202546	-151.204671	1286.16935	625.927314	-178.25472	1194.163819	866.132296	-497.302749	1210.320771	725.962881	-455.07548	1101.698576	635.867905	-455.676485	1411.909903	393.517279	-261.530465	1389.067192	279.023204	-229.607305	1433.163537	221.813371	-296.193035	933.507202	406.718926	-376.960067	865.793001	405.366315	-423.560207	803.326653	354.680724	-366.206791	1350.987583	86.142318	-315.292571	1571.480977	166.071539	-309.290895	1563.344669	125.170573	-238.98278	651.23876	404.946382	-369.49071	697.339415	178.199985	-296.892525	666.711334	176.796563	-383.72527	1310.899949	1564.832391	-445.259965	1252.812589	1524.968324	-118.85877	1321.072768	1479.347569	-249.511768	1215.579624	1572.61885	-295.71129	1149.762111	1430.424612	-52.797287	1086.604421	1444.847602	-80.255488	1068.061552	1381.397169	-49.457051	1007.077698	1317.928892	-45.491141	993.894526	1324.24261	-140.228636	1284.12423	1461.374676	-546.638616	1203.546589	1415.353795	-558.502414	1248.445193	1347.651254	-589.949655	1235.893835	1275.341888	-608.171126	1093.17863	1300.401904	-47.583951	1254.387773	1271.065242	-103.641918	1226.482661	1207.653859	-86.408715	1308.373466	1269.246352	-556.305536	1400.632235	1315.157395	-408.911121	1416.751023	1245.789349	-419.473894	1169.946676	1261.895425	-541.988518	1102.878684	1075.511725	-279.967767	
4	0.64	1280.744085	1017.478666	-450.183041	1268.896312	1022.14802	-190.388361	1115.157292	1071.383386	-375.573315	1252.91824	846.797569	-135.789486	1315.826655	758.555917	-150.744337	1289.582038	619.556942	-181.029731	1196.901766	860.618513	-498.285053	1216.52591	720.5906	-459.584479	1110.545358	627.612389	-459.725869	1407.687896	383.921906	-264.161292	1380.56833	270.276778	-232.239647	1422.520375	211.12019	-299.156399	941.476892	403.510032	-382.313366	873.288737	407.389625	-427.800293	808.383132	359.505753	-370.877061	1333.319009	86.642742	-317.143083	1558.175228	146.379563	-311.827324	1546.252805	106.180176	-241.145051	658.703953	418.874717	-371.742882	693.864317	188.74333	-304.004703	662.597289	190.780145	-390.78591	1308.898779	1557.823361	-445.857107	1255.402765	1517.514423	-118.167391	1321.240309	1471.718694	-250.418203	1215.457234	1565.965559	-294.546199	1154.34334	1421.121074	-50.550888	1090.49547	1434.670782	-76.820031	1073.354369	1370.870714	-45.874573	1013.482415	1306.458661	-40.948745	998.884142	1312.441849	-135.60201	1277.318158	1456.020756	-545.3931679999999	1196.589208	1410.673781	-557.053182	1239.640269	1342.747166	-590.85989	1225.772579	1270.917719	-609.187125	1099.767723	1290.080291	-44.353841	1260.392782	1263.3769	-103.193542	1234.033044	1199.529616	-85.269248	1299.433735	1261.274706	-559.659953	1397.441822	1301.347219	-413.528906	1410.461069	1231.647132	-425.987184	1161.535267	1257.923343	-541.530489	1103.187604	1068.073053	-279.465635	
